<svg xmlns="http://www.w3.org/2000/svg" viewBox="0 0 100 100">
  <defs>
    <clipPath id="roundedSquare">
      <rect width="100" height="100" rx="22" ry="22"/>
    </clipPath>
  </defs>
  <g clip-path="url(#roundedSquare)">
    <rect width="100" height="100" fill="#151a2e"/>
    <g fill="#5b6285"><circle cx="20" cy="30" r="3.5"/><circle cx="35" cy="30" r="3.5"/><circle cx="50" cy="30" r="3.5"/><circle cx="65" cy="30" r="3.5"/><circle cx="80" cy="30" r="3.5"/><circle cx="20" cy="46" r="3.5"/><circle cx="35" cy="46" r="3.5"/><circle cx="50" cy="46" r="3.5"/><circle cx="65" cy="46" r="3.5"/><circle cx="80" cy="46" r="3.5"/><circle cx="20" cy="62" r="3.5"/><circle cx="35" cy="62" r="3.5"/><circle cx="50" cy="62" r="3.5"/><circle cx="80" cy="62" r="3.5"/><circle cx="20" cy="78" r="3.5"/><circle cx="35" cy="78" r="3.5"/><circle cx="50" cy="78" r="3.5"/><circle cx="65" cy="78" r="3.5"/><circle cx="80" cy="78" r="3.5"/></g>
    <circle cx="65" cy="62" r="11" fill="#aa3bff"/>
    <circle cx="65" cy="62" r="4" fill="#ffffff"/>
    <rect x="34" y="8" width="8" height="12" rx="4" fill="#ffffff"/>
    <rect x="58" y="8" width="8" height="12" rx="4" fill="#ffffff"/>
  </g>
</svg>
